<?xml version="1.0" standalone="no"?>
<!--Created with Sketsa SVG Editor (http://www.kiyut.com)-->
<svg contentScriptType="text/ecmascript" width="300.0px" xmlns:xlink="http://www.w3.org/1999/xlink" baseProfile="full"
    zoomAndPan="magnify" contentStyleType="text/css" height="300.0px" preserveAspectRatio="xMidYMid meet" xmlns="http://www.w3.org/2000/svg"
    version="1.0">
    <polyline fill="none" points="1.0,63.0 298.0,62.0 0.0,69.0 299.0,60.0 3.5,59.5 298.0,69.0 4.0,69.0 295.0,58.0 
        147.0,63.0 1.0,144.0 148.0,65.0 299.0,155.0 153.0,65.0 146.0,71.0 137.0,117.0 144.0,116.0 151.0,69.0 148.0,70.0 
        137.0,118.0 146.0,116.0 150.0,67.0 131.0,165.0 128.0,166.0 112.0,254.0 131.0,255.0 140.0,164.0 132.0,165.0 
        113.0,253.0 129.0,255.0 140.0,164.0 129.0,164.0 114.0,254.0 131.0,258.0 139.0,163.0 127.0,164.0 114.0,254.0 
        131.0,256.0 141.0,164.0 129.0,165.0 112.0,258.0 129.0,258.0" stroke="#000000"/>
</svg>