<?xml version="1.0" standalone="no"?>
<!--Created with Sketsa SVG Editor (http://www.kiyut.com)-->
<svg contentScriptType="text/ecmascript" width="300.0px" xmlns:xlink="http://www.w3.org/1999/xlink" baseProfile="full"
    zoomAndPan="magnify" contentStyleType="text/css" height="300.0px" preserveAspectRatio="xMidYMid meet" xmlns="http://www.w3.org/2000/svg"
    version="1.0">
    <polyline fill="none" points="73.0,81.0 112.4,80.8 105.0,112.0 106.4,208.0 34.0,208.66667 34.0,114.0 105.0,112.5 
        111.25,82.0 72.75,83.0 36.0,113.0 34.0,210.0 105.8,208.0 105.0,111.0 114.0,81.0 73.5,81.75 114.0,81.75 
        104.0,111.75 101.875,112.375 103.2,112.2 112.6,81.8 114.2,81.6 115.25,105.5 124.0,83.0 181.0,81.0 
        189.16667,113.666664 112.5,115.333336 123.0,82.0 180.0,82.25 190.0,113.333336 191.25,209.25 115.25,208.0 
        114.166664,114.5 190.16667,112.166664 191.5,207.5 116.25,208.25 113.333336,113.666664 189.83333,113.166664 
        187.33333,100.666664 187.33333,81.333336 215.0,81.0 267.33334,110.0 197.0,110.0 188.0,82.666664 
        215.33333,81.666664 268.0,109.333336 269.0,208.0 202.5,209.5 198.0,111.0 267.33334,109.666664 268.5,207.5 
        204.0,208.25 199.5,112.0 268.4,111.4 271.0,208.66667 203.0,209.33333 191.25,166.25 191.25,207.25 116.0,209.0 
        115.0,166.0 105.8,208.4 35.666668,208.66667 35.0,114.333336 105.0,114.0 34.0,114.333336 70.0,84.0" stroke="#000000"/>
</svg>