<?xml version="1.0" standalone="no"?>
<!--Created with Sketsa SVG Editor (http://www.kiyut.com)-->
<svg contentScriptType="text/ecmascript" width="300.0px" xmlns:xlink="http://www.w3.org/1999/xlink" baseProfile="full"
    zoomAndPan="magnify" contentStyleType="text/css" height="300.0px" preserveAspectRatio="xMidYMid meet" xmlns="http://www.w3.org/2000/svg"
    version="1.0">
    <polygon fill="none" points="6.0,55.0 4.0,254.0 295.0,254.0 293.0,53.0 6.0,52.0 6.0,133.0 130.5,132.5 131.5,53.0 
        168.0,53.0 169.0,131.5 293.5,132.0 294.0,164.0 168.0,165.0 168.5,254.0 129.5,253.5 129.5,165.0 5.0,164.0 
        5.0,174.5 73.5,174.5 4.0,226.5 4.5,254.5 106.5,174.5 118.5,174.5 118.5,182.5 26.5,254.0 37.5,255.0 119.0,192.0 
        118.5,254.0 179.5,253.5 178.5,191.0 269.5,254.5 294.5,253.5 294.5,242.0 199.0,177.0 221.5,177.5 294.5,227.5 
        295.0,218.0 235.5,176.5 294.5,177.5 293.0,120.0 230.0,120.5 293.5,79.0 293.0,54.5 195.5,120.0 180.0,120.5 
        180.0,115.0 272.0,53.0 257.5,53.5 180.0,104.5 179.5,53.5 118.0,52.5 118.5,104.5 39.5,53.0 9.0,52.5 108.0,121.0 
        83.0,121.0 7.0,67.5 7.0,76.5 71.0,121.0 6.0,120.5" stroke="#000000"/>
</svg>