<?xml version="1.0" standalone="no"?>
<!--Created with Sketsa SVG Editor (http://www.kiyut.com)-->
<svg contentScriptType="text/ecmascript" width="300.0px" xmlns:xlink="http://www.w3.org/1999/xlink" baseProfile="full"
    zoomAndPan="magnify" contentStyleType="text/css" height="300.0px" preserveAspectRatio="xMidYMid meet" xmlns="http://www.w3.org/2000/svg"
    version="1.0">
    <polyline fill="none" transform="matrix(0.98157567 -0.19107328 0.19107328 0.98157567 -25.323805 35.56516)" points=
        "113.99865,176.81903 70.41532,63.985687 110.415306,176.98569 257.582,139.81902 191.41531,45.985683 
        72.41532,63.985687 65.99866,66.569016 59.598656,75.169014 56.598656,85.96902 57.66532,95.40235 59.16532,98.40235 
        96.66531,232.2357 261.41534,179.98569 256.89896,173.52007 253.7128,166.748 252.60477,157.90259 
        253.56503,150.32639 254.3837,146.9788 256.7487,140.15236 113.415306,174.98569 109.415306,176.98569 
        99.62865,186.27948 97.34788,191.3532 95.209435,204.59914 95.16193,222.75426 97.1074,230.04532 
        255.49866,179.19403 101.24865,225.06903 252.37366,175.31903 100.49865,222.31903 254.12366,177.19403 
        99.74865,219.81903 251.37366,173.19403 100.24865,216.81903 250.37366,171.19403 99.49865,213.31903 
        249.74866,168.94403 98.99865,209.31903 248.99866,167.06903 99.49865,206.31903 248.24866,164.94403 
        99.24865,203.15236 248.12366,162.31903 99.915306,200.81902 247.99866,159.81903 101.08199,196.98569 
        247.87366,157.06903 102.08199,194.48569 248.12366,154.81903 102.915306,191.15236 248.49866,151.94403 
        104.24865,188.31902 249.12366,149.44403 106.58196,184.98569 249.87366,146.94403 108.915306,181.48569 
        250.62366,144.06903 113.415306,176.98569 110.415306,175.48569 103.85447,181.05634 100.520905,186.18237 
        95.70925,196.60606 95.168205,201.64607 94.784134,209.84447 95.03823,213.89511 97.49865,231.06903 
        261.91534,180.31902 258.8106,176.59123 254.96988,170.09796 252.78421,162.2208 252.841,154.16179 
        255.74988,143.32256 257.91534,139.81902 255.582,139.98569" stroke="#000000"/>
</svg>