<?xml version="1.0" standalone="no"?>
<!--Created with Sketsa SVG Editor (http://www.kiyut.com)-->
<svg contentScriptType="text/ecmascript" width="300.0px" xmlns:xlink="http://www.w3.org/1999/xlink" baseProfile="full"
    zoomAndPan="magnify" contentStyleType="text/css" height="300.0px" preserveAspectRatio="xMidYMid meet" xmlns="http://www.w3.org/2000/svg"
    version="1.0">
    <polyline fill="none" points="152.75,127.75 99.0,172.5 157.0,174.0 209.0,166.0 155.5,124.5 198.5,147.5 192.5,154.0 
        281.5,45.5 217.0,172.0 210.0,166.5 224.5,177.5 166.0,248.5 83.0,178.0 99.0,173.5 94.5,174.5 60.0,94.0 16.0,111.0 
        58.5,85.0 74.5,84.0 117.5,156.0 113.0,146.5 152.75,125.5 112.5,145.5 74.0,85.5 55.5,77.5 19.0,109.0 56.5,87.0 
        95.5,173.0 82.5,179.0 167.0,249.0 159.0,174.0 208.5,167.0 155.5,124.5 142.0,19.0 94.0,113.0 142.0,17.5 
        207.0,118.0 210.5,132.5 198.0,146.5 155.0,125.75" stroke="#000000"/>
</svg>