<?xml version="1.0" standalone="no"?>
<!--Created with Sketsa SVG Editor (http://www.kiyut.com)-->
<svg contentScriptType="text/ecmascript" width="300.0px" xmlns:xlink="http://www.w3.org/1999/xlink" baseProfile="full"
    zoomAndPan="magnify" contentStyleType="text/css" height="300.0px" preserveAspectRatio="xMidYMid meet" xmlns="http://www.w3.org/2000/svg"
    version="1.0">
    <polyline fill="none" points="128.0,124.0 128.0,158.0 166.0,159.0 165.83333,122.0 133.44444,122.888885 148.0,123.0 
        162.88889,55.666668 151.0,55.0 151.0,41.0 175.0,39.0 173.0,56.0 162.22223,56.22222 149.0,123.0 166.0,122.0 
        166.0,137.0 226.88889,136.44444 226.77777,130.33333 240.0,129.0 241.0,150.0 226.11111,150.88889 
        227.33333,136.88889 167.0,138.0 166.0,158.0 155.0,159.0 184.88889,223.44444 177.16667,224.16667 180.0,244.0 
        199.0,243.0 199.0,226.0 188.0,228.0 154.0,160.0 129.0,157.0 88.0,215.0 75.833336,215.5 75.666664,230.5 
        102.833336,230.0 102.0,216.0 88.0,216.0 127.0,157.0 130.0,131.0 74.0,92.0 74.111115,75.77778 61.0,76.0 
        61.0,101.0 74.0,101.0 74.0,92.0 128.33334,129.88889 134.44444,123.666664 130.0,137.0 140.55556,123.77778 
        129.5,141.0 148.0,122.0 128.5,147.0 152.0,123.0 128.5,151.0 158.0,123.0 129.0,154.0 163.5,124.0 129.5,158.0 
        166.5,126.5 136.5,157.0 164.0,136.0 142.5,158.0 165.5,139.5 150.5,157.5 164.5,145.0 156.0,159.0 166.0,150.5 
        164.5,157.0 167.5,137.0 227.33333,137.0 234.5,130.0 228.5,139.5 238.0,129.5 227.0,143.0 240.0,131.5 227.5,145.5 
        240.0,138.0 229.5,148.0 238.0,141.5 232.5,151.0 240.44444,143.0 239.0,150.0 226.5,149.5 227.33333,136.44444 
        166.0,138.5 165.0,158.5 154.5,159.5 187.0,225.66667 185.0,230.16667 178.0,234.5 181.88889,224.66667 
        190.33333,224.66667 179.0,240.5 185.16667,226.83333 182.0,242.5 192.0,229.5 180.5,245.0 195.0,223.5 186.0,244.0 
        198.0,226.5 191.0,243.0 200.0,228.0 193.5,243.0 198.5,237.5 198.5,242.5 200.5,223.16667 186.33333,223.66667 
        155.0,159.5 128.0,157.0 88.5,215.5 78.5,217.0 77.0,223.0 85.5,216.0 77.5,230.5 89.5,216.0 81.0,230.5 94.0,216.5 
        87.0,230.0 96.0,217.5 90.5,228.5 101.0,217.5 93.0,229.0 102.5,223.0 101.0,228.5 102.333336,215.0 89.0,215.0 
        128.0,154.5 128.5,129.5 73.0,91.5 72.0,100.5 73.0,92.0 70.5,99.0 73.5,89.5 64.5,101.5 74.5,87.5 62.5,100.0 
        73.0,85.5 62.0,95.0 74.0,81.5 61.5,89.5 72.5,77.0 62.0,92.0 68.5,76.5 63.0,83.5 65.5,75.5 62.5,80.5 67.5,75.5 
        73.5,77.0 74.55556,91.55556 128.33334,129.66667 148.33333,122.0 162.66667,56.333332 172.5,55.5 
        173.33333,48.77778 166.0,56.0 173.5,44.0 163.77777,55.0 174.0,41.0 158.5,55.5 172.0,39.0 158.0,55.5 165.5,41.0 
        154.5,55.0 169.5,39.5 152.0,51.5 161.0,40.5 151.0,50.0 157.0,40.0 151.0,45.5 155.5,40.5 151.0,55.0 
        161.88889,57.0 149.0,121.0 167.66667,121.333336 166.5,159.0 126.0,158.5 128.33334,122.833336 166.66667,121.5"
        stroke="#000000"/>
</svg>