<?xml version="1.0" standalone="no"?>
<!--Created with Sketsa SVG Editor (http://www.kiyut.com)-->
<svg contentScriptType="text/ecmascript" width="300.0px" xmlns:xlink="http://www.w3.org/1999/xlink" baseProfile="full"
    zoomAndPan="magnify" contentStyleType="text/css" height="300.0px" preserveAspectRatio="xMidYMid meet" xmlns="http://www.w3.org/2000/svg"
    version="1.0">
    <polyline fill="none" points="33.0,30.0 268.0,29.0 268.0,263.0 35.0,265.0 33.5,30.5 56.5,29.5 58.0,264.5 82.0,265.0 
        79.0,30.0 99.5,29.5 108.0,264.0 133.0,264.5 127.0,30.0 154.5,29.0 163.0,264.0 188.0,264.0 182.0,29.5 212.5,28.5 
        216.5,263.0 243.5,263.5 243.0,30.0 268.5,29.0 267.5,52.5 33.5,53.0 34.5,78.0 268.0,73.5 268.0,98.0 34.5,103.0 
        35.0,128.0 268.0,124.0 268.0,148.0 35.0,156.0 35.0,180.0 268.0,173.0 268.0,200.5 34.0,210.0 34.0,234.0 
        268.0,232.5 134.0,233.0 133.0,227.0 137.0,232.0 140.0,233.0 133.5,221.0 143.5,232.0 133.5,217.0 146.5,232.0 
        132.5,214.5 149.0,232.0 131.5,210.5 151.5,233.0 134.0,210.0 156.0,232.0 132.0,206.5 160.0,233.0 134.5,205.5 
        160.5,227.0 143.0,205.5 160.5,221.0 145.5,205.0 160.5,217.5 153.0,206.5 161.0,211.5 155.0,205.0 159.5,206.0 
        132.5,204.0 132.5,197.5 135.5,202.5 132.5,191.0 140.0,202.0 132.5,186.0 144.5,204.0 131.0,181.5 148.0,203.0 
        131.0,179.0 152.0,202.5 133.0,177.0 156.5,201.5 138.5,178.5 159.0,203.0 143.5,177.5 159.5,197.0 146.5,177.0 
        161.5,191.5 151.5,176.5 161.0,183.5 160.0,178.0 131.5,176.0 131.5,170.5 135.5,175.5 131.0,164.5 139.0,175.5 
        130.5,162.0 143.5,176.0 131.0,159.0 146.0,176.0 131.5,156.0 149.5,175.0 130.5,152.5 154.0,176.0 137.0,153.0 
        156.0,175.5 144.0,153.5 158.0,173.5 146.5,153.0 158.5,168.0 152.0,152.5 159.0,161.0 156.0,153.5 159.0,153.0 
        131.0,152.0 130.5,146.0 135.5,151.5 131.5,142.5 140.5,152.5 130.5,138.0 144.0,152.0 131.5,135.0 146.5,151.0 
        130.0,130.5 150.0,151.0 131.5,128.0 152.5,150.0 135.0,127.0 156.0,150.0 140.0,126.0 157.0,146.5 145.5,126.0 
        157.5,142.0 150.0,126.0 158.0,135.5 155.5,125.0 158.0,125.0 158.5,118.0 161.0,124.5 158.5,114.0 166.0,125.0 
        159.0,111.0 171.5,125.0 158.0,105.5 174.0,125.0 159.5,102.0 177.5,125.5 161.5,100.5 180.0,125.0 167.0,99.0 
        181.5,124.0 171.0,98.5 183.5,118.0 176.0,100.5 183.5,109.0 179.5,100.0 183.5,100.0 183.0,91.0 187.0,98.5 
        183.0,84.0 190.5,100.0 184.0,83.0 193.5,100.5 184.0,78.5 197.5,98.5 183.5,74.5 200.5,98.5 189.0,75.0 204.5,99.0 
        194.5,75.5 206.5,99.5 197.5,75.5 210.0,99.5 200.5,76.5 213.0,97.5 202.5,75.5 213.5,89.0 207.5,75.5 212.5,79.5 
        212.5,73.5 182.5,74.5 182.0,65.5 187.0,74.0 183.0,63.0 190.5,73.5 182.5,58.5 194.5,74.0 183.0,56.0 197.0,73.0 
        183.0,53.5 200.5,73.5 186.5,52.0 203.5,73.0 193.5,53.0 207.0,73.0 197.0,53.5 210.0,73.5 200.0,53.0 212.5,70.0 
        204.5,53.5 212.0,63.0 210.0,53.0 174.0,53.0 181.0,57.5 171.0,53.0 181.0,63.0 170.0,53.5 180.5,67.0 167.5,53.5 
        181.0,71.5 166.0,53.0 179.5,72.0 162.5,54.5 181.0,74.0 159.5,54.0 177.0,74.0 157.5,58.5 173.0,75.5 158.0,62.5 
        169.0,76.0 157.5,68.0 164.0,74.5 157.0,70.5 156.5,52.0 148.0,52.0 155.5,58.0 145.0,53.5 155.5,63.5 142.0,52.5 
        155.5,68.0 141.0,52.5 155.0,70.5 136.5,53.5 155.0,74.5 133.0,54.0 151.5,75.5 129.0,54.0 147.0,75.5 130.5,63.0 
        141.5,76.0 128.5,65.5 135.5,76.5 129.5,72.5 128.0,52.5 121.0,52.0 128.0,56.5 117.0,53.5 127.5,61.5 114.5,53.0 
        127.0,64.5 109.5,54.5 128.0,69.0 106.5,52.5 127.0,70.0 104.0,54.0 127.5,74.0 100.5,54.0 127.5,75.0 102.5,61.0 
        123.5,77.0 101.5,64.5 118.0,77.0 100.0,67.0 111.5,76.5 101.0,72.5 100.5,77.0 100.5,52.0 90.0,54.0 99.0,55.5 
        90.0,54.5 100.5,59.5 85.5,53.0 100.0,63.0 82.0,53.5 99.5,67.0 79.5,54.0 100.0,71.5 79.0,59.0 99.5,75.0 79.0,63.5 
        95.5,75.5 80.0,69.5 88.0,76.0 78.5,70.0 81.5,76.0 79.0,76.5" stroke="#000000"/>
</svg>