<?xml version="1.0" standalone="no"?>
<!--Created with Sketsa SVG Editor (http://www.kiyut.com)-->
<svg contentScriptType="text/ecmascript" width="300.0px" xmlns:xlink="http://www.w3.org/1999/xlink" baseProfile="full"
    zoomAndPan="magnify" contentStyleType="text/css" height="300.0px" preserveAspectRatio="xMidYMid meet" xmlns="http://www.w3.org/2000/svg"
    version="1.0">
    <polyline fill="none" points="244.75,39.5 167.0,63.0 129.75,110.25 137.0,149.0 100.0,185.0 100.0,211.0 32.0,242.0 
        129.0,245.33333 135.0,204.0 166.25,188.0 203.0,165.0 198.25,144.25 249.0,135.0 265.0,98.0 248.25,41.0 
        169.33333,64.33333 265.0,97.0 244.25,42.0 264.0,95.0 168.0,67.0 246.0,43.0 262.0,93.0 249.0,133.0 133.5,108.5 
        168.0,68.5 169.5,67.0 168.0,68.0 262.75,97.25 247.0,134.0 200.5,145.5 137.25,129.25 132.5,110.25 139.25,129.25 
        200.25,147.0 242.0,133.25 133.5,109.75 141.25,130.0 140.75,131.0 199.5,148.25 203.0,163.0 139.0,148.0 
        107.0,187.0 134.75,201.5 104.0,185.0 137.0,149.0 199.75,165.75 137.0,202.0 131.5,223.0 100.0,212.0 104.0,186.0 
        105.0,211.0 132.33334,222.33333 131.33334,247.66667 32.5,244.75 101.0,211.0 27.75,245.25 107.25,207.75 
        107.5,189.5 137.0,200.0 204.0,167.25 137.75,147.5 136.25,130.25 135.5,106.25 166.5,66.0 243.0,46.0" stroke="#000000"/>
</svg>