<?xml version="1.0" standalone="no"?>
<!--Created with Sketsa SVG Editor (http://www.kiyut.com)-->
<svg contentScriptType="text/ecmascript" width="300.0px" xmlns:xlink="http://www.w3.org/1999/xlink" baseProfile="full"
    zoomAndPan="magnify" contentStyleType="text/css" height="300.0px" preserveAspectRatio="xMidYMid meet" xmlns="http://www.w3.org/2000/svg"
    version="1.0">
    <polyline fill="none" points="133.0,31.0 29.0,56.0 48.0,206.0 163.0,273.0 253.0,192.0 264.0,52.0 165.0,88.0 
        30.0,57.0 142.5,28.5 262.0,49.0 166.0,87.0 165.0,271.0 203.0,237.0 205.5,73.5 237.5,61.5 231.0,209.0 251.0,191.0 
        256.0,146.0 166.0,202.0 166.0,146.0 260.5,100.0 264.0,50.0 237.5,60.5 107.0,38.0 78.0,46.5 205.0,74.0 167.0,87.0 
        119.0,76.0 219.0,42.0 180.0,34.0 76.5,68.0 32.0,57.0 37.0,103.0 165.0,146.0 165.0,201.0 40.0,150.0 47.0,206.0 
        86.0,227.5 74.5,69.5 119.5,78.5 126.5,252.0 165.0,269.0 164.0,87.5" stroke="#000000"/>
</svg>