<?xml version="1.0" standalone="no"?>
<!--Created with Sketsa SVG Editor (http://www.kiyut.com)-->
<svg contentScriptType="text/ecmascript" width="300.0px" xmlns:xlink="http://www.w3.org/1999/xlink" baseProfile="full"
    zoomAndPan="magnify" contentStyleType="text/css" height="300.0px" preserveAspectRatio="xMidYMid meet" xmlns="http://www.w3.org/2000/svg"
    version="1.0">
    <polyline fill="none" points="31.0,16.0 34.5,34.5 41.0,52.5 51.0,70.0 62.25,85.75 78.0,104.25 95.5,119.5 
        110.666664,131.0 125.33334,140.66667 136.66667,140.44444 138.88889,142.88889 137.55556,153.11111 
        129.55556,151.44444 126.33334,150.11111 122.888885,144.44444 127.22223,141.44444 128.88889,141.22223 
        136.66667,140.77777 140.33333,145.33333 138.77777,150.33333 134.0,154.33333 127.888885,153.44444 123.0,146.0 
        125.22223,141.77777 128.0,139.66667 132.22223,139.33333 133.44444,139.88889 139.44444,145.11111 
        135.33333,151.55556 130.0,152.88889 126.0,150.88889 123.55556,143.77777 130.66667,140.11111 134.77777,140.22223 
        139.55556,143.22223 135.55556,154.11111 134.66667,153.33333 132.11111,153.33333 125.55556,151.33333 
        124.0,142.66667 131.77777,144.66667 117.666664,136.11111 105.33333,127.0 104.875,124.875 109.33333,104.333336 
        178.0,119.0 158.66667,265.66666 76.0,259.0 109.33333,102.333336 176.0,116.33333 161.33334,267.0 78.0,257.0 
        106.0,105.666664 178.66667,114.33333 162.66667,265.66666 80.0,262.33334 107.33333,101.666664 182.0,112.33333 
        166.66667,264.33334 85.33333,263.0 110.0,100.333336 181.33334,113.0 165.33334,271.0 80.0,260.33334 
        111.33333,103.0 178.0,112.33333 167.33334,272.33334 78.0,261.66666 111.33333,103.0 180.0,116.33333 
        163.33334,269.0 76.666664,263.0 108.0,99.666664 182.0,111.0 162.0,268.33334 78.666664,260.33334 
        108.666664,102.333336 181.33334,114.33333 178.0,139.66667 187.0,137.0 200.75,132.0 216.0,124.166664 
        230.16667,114.5 245.16667,100.833336 256.0,85.333336 264.0,71.333336 271.33334,54.0 276.25,41.5 281.5,26.5 
        284.4,14.4" stroke="#000000"/>
</svg>