<?xml version="1.0" standalone="no"?>
<!--Created with Sketsa SVG Editor (http://www.kiyut.com)-->
<svg contentScriptType="text/ecmascript" width="300.0px" xmlns:xlink="http://www.w3.org/1999/xlink" baseProfile="full"
    zoomAndPan="magnify" contentStyleType="text/css" height="300.0px" preserveAspectRatio="xMidYMid meet" xmlns="http://www.w3.org/2000/svg"
    version="1.0">
    <polyline fill="none" points="51.666668,38.0 55.0,89.5 99.25,88.25 100.5,41.0 52.0,37.5 99.5,87.75 100.5,41.25 
        100.0,88.0 146.25,88.25 151.5,36.5 100.25,41.25 145.75,88.75 151.5,37.0 204.5,40.0 194.5,89.0 145.5,88.0 
        151.5,37.0 194.75,88.75 205.0,39.5 194.5,88.5 248.5,92.5 242.0,35.5 204.66667,40.0 248.25,92.75 238.5,147.25 
        190.25,149.75 194.75,89.0 248.5,92.25 238.5,147.0 195.25,89.0 190.5,149.5 139.5,152.5 146.0,88.25 194.75,88.75 
        190.5,149.5 145.5,88.0 139.5,152.5 97.25,140.75 99.75,88.0 146.0,88.25 139.25,152.75 99.5,88.0 97.5,141.25 
        52.0,147.75 55.0,89.25 99.75,88.25 97.5,140.75 55.25,89.5 52.0,147.75 52.0,210.5 97.0,211.0 97.5,141.25 
        52.0,147.75 96.75,210.75 97.5,141.0 96.75,211.0 150.0,202.5 139.25,152.0 97.5,141.0 150.5,203.0 139.25,152.75 
        150.25,202.0 205.5,201.5 190.5,149.5 139.5,152.5 205.0,201.25 190.5,149.5 205.0,201.25 250.75,197.0 238.5,147.25 
        190.5,149.25 250.75,197.0 252.66667,267.0 202.66667,259.0 205.25,201.0 251.0,197.25 252.33333,267.0 205.25,201.0 
        202.33333,259.33334 149.0,268.33334 150.5,202.25 205.25,201.0 202.66667,259.33334 150.25,202.0 149.0,268.0 
        99.0,262.66666 96.75,210.75 150.75,202.25 149.0,268.0 96.75,210.75 99.0,262.66666 54.5,256.5 52.25,210.5 
        96.75,211.25 99.0,262.5 52.5,210.5" stroke="#000000"/>
</svg>